<svg id="Capa_1" data-name="Capa 1" xmlns="http://www.w3.org/2000/svg" xmlns:xlink="http://www.w3.org/1999/xlink" viewBox="0 0 401.31 370.58"><defs><style>.cls-1{fill:#588342;}.cls-2{fill:url(#Degradado_sin_nombre_13);}</style><linearGradient id="Degradado_sin_nombre_13" x1="455.1" y1="467.54" x2="856.41" y2="467.54" gradientUnits="userSpaceOnUse"><stop offset="0" stop-color="#96d60e"/><stop offset="0.21" stop-color="#93d210"/><stop offset="0.42" stop-color="#8bc517"/><stop offset="0.64" stop-color="#7db123"/><stop offset="0.86" stop-color="#699434"/><stop offset="1" stop-color="#597d41"/></linearGradient></defs><title>Bioterra</title><path class="cls-1" d="M837.93,547.72c-6.74,4.12-19,1.21-25.21-6-7-8.09-7.55-22.66-14-27-5.64-3.8-8.43-.23-20-4-3.5-1.14-12-3.9-19-11-11.58-11.67-11.89-27.6-12-33-.1-4.8-.28-14.24,5-24,4.63-8.55,11.38-13.5,23-22,7.52-5.5,9.24-5.28,13.77-9.27a25.39,25.39,0,0,1,6.72-4.06,25.84,25.84,0,0,1,5.72-1.72,123.66,123.66,0,0,1,16,15,122.13,122.13,0,0,1,21,33,129.23,129.23,0,0,1,10,54,104.59,104.59,0,0,1-3,22C843.29,540.07,842,545.25,837.93,547.72Z" transform="translate(-455.1 -282.25)"/><path class="cls-1" d="M622.25,362.07c-5.94.26-11.23-8.84-12.1-10.14-3.34-5-4.77-11.06-4.77-17.92,0-7.64,1.78-15,4-22.35,2.64-8.9,5-17.81,6.13-27,.31-2.64.57-2.9,2.39-1.71,9.4,6.11,17.48,13.53,23,23.43,8.19,14.52,8.84,29.95,5.15,45.73a63.41,63.41,0,0,1-4.8,14.12,4.79,4.79,0,0,0-.2,1.4c.44-.18.89-.35,1.31-.55,6.57-3.22,12.88-6.95,19.76-9.49a148.89,148.89,0,0,1,53-9.49,138.7,138.7,0,0,1,33.8,4.48,142.31,142.31,0,0,1,33.48,13.75c13.93,7.69,25.82,17.75,36.53,29.3a116.31,116.31,0,0,1,13.19,17.86c.61,1,.63,1.52-1.07,1.63a6.07,6.07,0,0,1-4.93-1.84,195.42,195.42,0,0,0-25.38-19.74c-2.92-1.95-6-3.54-9-5.28a131.89,131.89,0,0,0-17.4-8.58c-19.52-7.77-39.74-12.23-60.87-12.32a176.65,176.65,0,0,0-35,3.64,156.47,156.47,0,0,0-22.35,5.81c-4.5,1.6-7.83,3.08-8.92,3.57a118.53,118.53,0,0,0-27,16.74,113.88,113.88,0,0,0-9.34,8.64c-3.15,3.27-4.63,5.62-10.5,12.6-5.45,6.48-6.8,7.72-7.42,7.38-1.11-.58.59-5.77,1-7,.51-1.56,2.5-7.27,9-15.29,1.13-1.39,2.46-2.87,5.15-5.8s5.06-5.52,8.43-8.68c2-1.87,2.36-2.08,4.15-3.84a54.23,54.23,0,0,0,5.23-5.8,34.29,34.29,0,0,0,2.69-4c2.27-3.92,4.11-8.49,5.23-19.29.81-7.87.81-13.48.82-24.69a93.26,93.26,0,0,0-1.17-12.48,25.8,25.8,0,0,0-2.22-7.48c-1.12-2.32-2.81-5-3.42-4.74s.17,2.41.77,5.79a73.2,73.2,0,0,1,1.12,9.68s.73,25.91-1.62,37a2.86,2.86,0,0,1-.16.48C626.9,361.86,622.72,362.05,622.25,362.07Z" transform="translate(-455.1 -282.25)"/><path class="cls-1" d="M771.72,387.82c.22,2.05-1.37,2.94-2.68,3.84-4.61,3.14-8.81,6.78-13.1,10.32-12,9.89-24,19.71-38.28,26.29a142.62,142.62,0,0,1-27,9.43,60.52,60.52,0,0,1-18.7,1c-14.28-1.47-25.15-8.34-33-13.22-3.07-1.92-5.49-3.63-7-4.76,1.68-1.79,4.05-4.22,7-7a144.68,144.68,0,0,1,23-18,110.65,110.65,0,0,1,37-14,122.43,122.43,0,0,1,72.79,6.1Z" transform="translate(-455.1 -282.25)"/><path class="cls-1" d="M648.72,453.77c5.44-2.71,10.77-3.16,17-3,10.1.26,20.91.54,33,7,5.79,3.09,19.61,10.48,19,19-.58,8.18-13.92,10-14,18-.07,7.23,10.84,9.32,12,18,.81,6.1-3.83,10.65-9,17-20.15,24.73-18.18,39.64-28,41-2.31.32-11.58.77-25-21a144.81,144.81,0,0,1-15.17-44c-1.18-7.22-2.16-12.16-1.59-21.69.86-14.69.87-18,2.65-21.55a23.5,23.5,0,0,1,3.11-4.76A29,29,0,0,1,648.72,453.77Z" transform="translate(-455.1 -282.25)"/><path class="cls-1" d="M856,536.58l-1-.16c-2.87,4.68-3.8,9.58-5.6,14.31a127.37,127.37,0,0,1-22.27,38.6,127.1,127.1,0,0,1-46.52,34.82A128.65,128.65,0,0,1,767,629.31c-2.32.74-4.66,1.41-7,2.06s-4.75,1.17-7.11,1.73A133.67,133.67,0,0,1,724,636a145.18,145.18,0,0,1-56.48-12c-4.46-1.91-8.83-4-13-6.34-2.11-1.15-4.16-2.37-6.16-3.63s-4-2.7-6-4a134.39,134.39,0,0,1-21.52-19,167.91,167.91,0,0,1-17.49-22.75l-1.9-3-1.8-3.07c-.57-1-1.16-2.06-1.69-3.1s-1.11-2.06-1.63-3.14c-2.18-4.26-4-8.69-5.75-13.16a137.06,137.06,0,0,1-7.36-27.94c-.37-2.39-.65-4.78-.87-7.18-.12-1.19-.19-2.4-.24-3.62l-.17-3.64c-.09-1.22-.05-2.44-.05-3.66V493c.08-2.44.22-4.89.37-7.35a143.24,143.24,0,0,1,5.59-29.22c.35-1.18.72-2.36,1.1-3.54,1.14-3.11,2-5.2,2-5.2,3.72-9.34,6.94-15.44,7.89-18.26l.59-1.18-.33-.23a.49.49,0,0,0-.15-.33c-1-.7-5.72,4.34-8,7-4,4.61-8.29,10.95-13.22,23.08A159.39,159.39,0,0,0,570,482.48l-.67,1.28c-.24-.42-.51-.82-.72-1.25a136.39,136.39,0,0,0-11.87-20.65c-7.25-10-15.76-18.7-26.38-25.25a89.82,89.82,0,0,0-11.46-6c-23.37-10.19-42.56-7.41-46.14-6.84-1,.16-17.51,2.89-17.61,7.1a2.46,2.46,0,0,0,.78,1.68c3.28,3.73,6.67,7.36,9.84,11.18,7,8.44,12.59,17.89,19,26.75a93.34,93.34,0,0,0,19.61,20.37c10.32,7.68,21.82,10.13,34.32,6.87A42.7,42.7,0,0,0,550.1,493c1.37-.84,1.85-1.77.43-3.11a20.75,20.75,0,0,1-2.08-2.78A136.48,136.48,0,0,0,506,449.36a99.68,99.68,0,0,0-13.21-6.77c-.44-.17-.92-.52-.79-1.11a1,1,0,0,1,1.08-.73,14.79,14.79,0,0,1,2.49,0,67.11,67.11,0,0,1,19,6.6,110.87,110.87,0,0,1,38.19,32,79.2,79.2,0,0,1,11.59,21.58c.45,1.31.9,2.74,1,3v0a66.82,66.82,0,0,1,2.55,12.34s.77,6.57,2.17,15.74a129.6,129.6,0,0,0,3.2,16.49c.35,1.29,2.27,7.48,5.51,15.5,1,2.56,2.27,5.11,3.54,7.56l2,3.65,2.06,3.58a146.67,146.67,0,0,0,9.31,13.57l2.57,3.21c.85,1.07,1.77,2.08,2.66,3.12,1.75,2.11,3.69,4.05,5.57,6a156.08,156.08,0,0,0,25.22,20.95c2.31,1.47,4.57,3,6.94,4.4s4.8,2.73,7.22,4c4.85,2.52,9.79,4.76,14.82,6.79A172.17,172.17,0,0,0,691.74,650a155.22,155.22,0,0,0,32.43,2.78,132.14,132.14,0,0,0,16.26-1.3,149.51,149.51,0,0,0,46.29-14.37,134.39,134.39,0,0,0,27-17.67l3.08-2.62c1-.9,2-1.86,2.94-2.78l2.91-2.8,2.75-3c.91-1,1.84-2,2.73-3l2.52-3.16,2.51-3.15,2.3-3.29A103,103,0,0,0,843.83,582a124,124,0,0,0,6.38-14.59,129.5,129.5,0,0,0,4.45-15.17c.59-2.56,1.12-5.12,1.51-7.71A24.37,24.37,0,0,0,856,536.58Z" transform="translate(-455.1 -282.25)"/><path class="cls-1" d="M647.93,599.72c.91-.38,2.39-1,4.19-1.88,16.83-8,18.12-14,25.29-15.56,13.25-3,31,12.46,34.05,21a29.44,29.44,0,0,0,6.87,11.66c.78.77,1.22,1.21,2.21,2.12a25,25,0,0,1,6.39,9.67,122.2,122.2,0,0,1-24-2,124,124,0,0,1-24-7A126.63,126.63,0,0,1,647.93,599.72Z" transform="translate(-455.1 -282.25)"/><path class="cls-1" d="M759.93,621.72a28.56,28.56,0,0,1-2.28-15.15,16.57,16.57,0,0,1,11.07-14.8c4.13-1.7,8.31-1.84,13-2s6.63.25,8.54-1.36c1.6-1.35,2-3.21,2.53-5.54,1-4.66-.23-6.49-.07-14.1.08-3.71.42-5.3,1.45-6.77.61-.85,1.7-2,4.55-3.23,1.15-.49,5-2,12.12-1.86a43.76,43.76,0,0,1,13.06,2.56,48.12,48.12,0,0,1,9,4.25,128.6,128.6,0,0,1-16,22,126,126,0,0,1-31,25A123.05,123.05,0,0,1,759.93,621.72Z" transform="translate(-455.1 -282.25)"/><path class="cls-2" d="M837.93,547.72c-6.74,4.12-19,1.21-25.21-6-7-8.09-7.55-22.66-14-27-5.64-3.8-8.43-.23-20-4-3.5-1.14-12-3.9-19-11-11.58-11.67-11.89-27.6-12-33-.1-4.8-.28-14.24,5-24,4.63-8.55,11.38-13.5,23-22,7.52-5.5,9.24-5.28,13.77-9.27a25.39,25.39,0,0,1,6.72-4.06,25.84,25.84,0,0,1,5.72-1.72,123.66,123.66,0,0,1,16,15,122.13,122.13,0,0,1,21,33,129.23,129.23,0,0,1,10,54,104.59,104.59,0,0,1-3,22C843.29,540.07,842,545.25,837.93,547.72Z" transform="translate(-455.1 -282.25)"/><path class="cls-2" d="M622.25,362.07c-5.94.26-11.23-8.84-12.1-10.14-3.34-5-4.77-11.06-4.77-17.92,0-7.64,1.78-15,4-22.35,2.64-8.9,5-17.81,6.13-27,.31-2.64.57-2.9,2.39-1.71,9.4,6.11,17.48,13.53,23,23.43,8.19,14.52,8.84,29.95,5.15,45.73a63.41,63.41,0,0,1-4.8,14.12,4.79,4.79,0,0,0-.2,1.4c.44-.18.89-.35,1.31-.55,6.57-3.22,12.88-6.95,19.76-9.49a148.89,148.89,0,0,1,53-9.49,138.7,138.7,0,0,1,33.8,4.48,142.31,142.31,0,0,1,33.48,13.75c13.93,7.69,25.82,17.75,36.53,29.3a116.31,116.31,0,0,1,13.19,17.86c.61,1,.63,1.52-1.07,1.63a6.07,6.07,0,0,1-4.93-1.84,195.42,195.42,0,0,0-25.38-19.74c-2.92-1.95-6-3.54-9-5.28a131.89,131.89,0,0,0-17.4-8.58c-19.52-7.77-39.74-12.23-60.87-12.32a176.65,176.65,0,0,0-35,3.64,156.47,156.47,0,0,0-22.35,5.81c-4.5,1.6-7.83,3.08-8.92,3.57a118.53,118.53,0,0,0-27,16.74,113.88,113.88,0,0,0-9.34,8.64c-3.15,3.27-4.63,5.62-10.5,12.6-5.45,6.48-6.8,7.72-7.42,7.38-1.11-.58.59-5.77,1-7,.51-1.56,2.5-7.27,9-15.29,1.13-1.39,2.46-2.87,5.15-5.8s5.06-5.52,8.43-8.68c2-1.87,2.36-2.08,4.15-3.84a54.23,54.23,0,0,0,5.23-5.8,34.29,34.29,0,0,0,2.69-4c2.27-3.92,4.11-8.49,5.23-19.29.81-7.87.81-13.48.82-24.69a93.26,93.26,0,0,0-1.17-12.48,25.8,25.8,0,0,0-2.22-7.48c-1.12-2.32-2.81-5-3.42-4.74s.17,2.41.77,5.79a73.2,73.2,0,0,1,1.12,9.68s.73,25.91-1.62,37a2.86,2.86,0,0,1-.16.48C626.9,361.86,622.72,362.05,622.25,362.07Z" transform="translate(-455.1 -282.25)"/><path class="cls-2" d="M771.72,387.82c.22,2.05-1.37,2.94-2.68,3.84-4.61,3.14-8.81,6.78-13.1,10.32-12,9.89-24,19.71-38.28,26.29a142.62,142.62,0,0,1-27,9.43,60.52,60.52,0,0,1-18.7,1c-14.28-1.47-25.15-8.34-33-13.22-3.07-1.92-5.49-3.63-7-4.76,1.68-1.79,4.05-4.22,7-7a144.68,144.68,0,0,1,23-18,110.65,110.65,0,0,1,37-14,122.43,122.43,0,0,1,72.79,6.1Z" transform="translate(-455.1 -282.25)"/><path class="cls-2" d="M648.72,453.77c5.44-2.71,10.77-3.16,17-3,10.1.26,20.91.54,33,7,5.79,3.09,19.61,10.48,19,19-.58,8.18-13.92,10-14,18-.07,7.23,10.84,9.32,12,18,.81,6.1-3.83,10.65-9,17-20.15,24.73-18.18,39.64-28,41-2.31.32-11.58.77-25-21a144.81,144.81,0,0,1-15.17-44c-1.18-7.22-2.16-12.16-1.59-21.69.86-14.69.87-18,2.65-21.55a23.5,23.5,0,0,1,3.11-4.76A29,29,0,0,1,648.72,453.77Z" transform="translate(-455.1 -282.25)"/><path class="cls-2" d="M856,536.58l-1-.16c-2.87,4.68-3.8,9.58-5.6,14.31a127.37,127.37,0,0,1-22.27,38.6,127.1,127.1,0,0,1-46.52,34.82A128.65,128.65,0,0,1,767,629.31c-2.32.74-4.66,1.41-7,2.06s-4.75,1.17-7.11,1.73A133.67,133.67,0,0,1,724,636a145.18,145.18,0,0,1-56.48-12c-4.46-1.91-8.83-4-13-6.34-2.11-1.15-4.16-2.37-6.16-3.63s-4-2.7-6-4a134.39,134.39,0,0,1-21.52-19,167.91,167.91,0,0,1-17.49-22.75l-1.9-3-1.8-3.07c-.57-1-1.16-2.06-1.69-3.1s-1.11-2.06-1.63-3.14c-2.18-4.26-4-8.69-5.75-13.16a137.06,137.06,0,0,1-7.36-27.94c-.37-2.39-.65-4.78-.87-7.18-.12-1.19-.19-2.4-.24-3.62l-.17-3.64c-.09-1.22-.05-2.44-.05-3.66V493c.08-2.44.22-4.89.37-7.35a143.24,143.24,0,0,1,5.59-29.22c.35-1.18.72-2.36,1.1-3.54,1.14-3.11,2-5.2,2-5.2,3.72-9.34,6.94-15.44,7.89-18.26l.59-1.18-.33-.23a.49.49,0,0,0-.15-.33c-1-.7-5.72,4.34-8,7-4,4.61-8.29,10.95-13.22,23.08A159.39,159.39,0,0,0,570,482.48l-.67,1.28c-.24-.42-.51-.82-.72-1.25a136.39,136.39,0,0,0-11.87-20.65c-7.25-10-15.76-18.7-26.38-25.25a89.82,89.82,0,0,0-11.46-6c-23.37-10.19-42.56-7.41-46.14-6.84-1,.16-17.51,2.89-17.61,7.1a2.46,2.46,0,0,0,.78,1.68c3.28,3.73,6.67,7.36,9.84,11.18,7,8.44,12.59,17.89,19,26.75a93.34,93.34,0,0,0,19.61,20.37c10.32,7.68,21.82,10.13,34.32,6.87A42.7,42.7,0,0,0,550.1,493c1.37-.84,1.85-1.77.43-3.11a20.75,20.75,0,0,1-2.08-2.78A136.48,136.48,0,0,0,506,449.36a99.68,99.68,0,0,0-13.21-6.77c-.44-.17-.92-.52-.79-1.11a1,1,0,0,1,1.08-.73,14.79,14.79,0,0,1,2.49,0,67.11,67.11,0,0,1,19,6.6,110.87,110.87,0,0,1,38.19,32,79.2,79.2,0,0,1,11.59,21.58c.45,1.31.9,2.74,1,3v0a66.82,66.82,0,0,1,2.55,12.34s.77,6.57,2.17,15.74a129.6,129.6,0,0,0,3.2,16.49c.35,1.29,2.27,7.48,5.51,15.5,1,2.56,2.27,5.11,3.54,7.56l2,3.65,2.06,3.58a146.67,146.67,0,0,0,9.31,13.57l2.57,3.21c.85,1.07,1.77,2.08,2.66,3.12,1.75,2.11,3.69,4.05,5.57,6a156.08,156.08,0,0,0,25.22,20.95c2.31,1.47,4.57,3,6.94,4.4s4.8,2.73,7.22,4c4.85,2.52,9.79,4.76,14.82,6.79A172.17,172.17,0,0,0,691.74,650a155.22,155.22,0,0,0,32.43,2.78,132.14,132.14,0,0,0,16.26-1.3,149.51,149.51,0,0,0,46.29-14.37,134.39,134.39,0,0,0,27-17.67l3.08-2.62c1-.9,2-1.86,2.94-2.78l2.91-2.8,2.75-3c.91-1,1.84-2,2.73-3l2.52-3.16,2.51-3.15,2.3-3.29A103,103,0,0,0,843.83,582a124,124,0,0,0,6.38-14.59,129.5,129.5,0,0,0,4.45-15.17c.59-2.56,1.12-5.12,1.51-7.71A24.37,24.37,0,0,0,856,536.58Z" transform="translate(-455.1 -282.25)"/><path class="cls-2" d="M647.93,599.72c.91-.38,2.39-1,4.19-1.88,16.83-8,18.12-14,25.29-15.56,13.25-3,31,12.46,34.05,21a29.44,29.44,0,0,0,6.87,11.66c.78.77,1.22,1.21,2.21,2.12a25,25,0,0,1,6.39,9.67,122.2,122.2,0,0,1-24-2,124,124,0,0,1-24-7A126.63,126.63,0,0,1,647.93,599.72Z" transform="translate(-455.1 -282.25)"/><path class="cls-2" d="M759.93,621.72a28.56,28.56,0,0,1-2.28-15.15,16.57,16.57,0,0,1,11.07-14.8c4.13-1.7,8.31-1.84,13-2s6.63.25,8.54-1.36c1.6-1.35,2-3.21,2.53-5.54,1-4.66-.23-6.49-.07-14.1.08-3.71.42-5.3,1.45-6.77.61-.85,1.7-2,4.55-3.23,1.15-.49,5-2,12.12-1.86a43.76,43.76,0,0,1,13.06,2.56,48.12,48.12,0,0,1,9,4.25,128.6,128.6,0,0,1-16,22,126,126,0,0,1-31,25A123.05,123.05,0,0,1,759.93,621.72Z" transform="translate(-455.1 -282.25)"/></svg>